<?xml version="1.0" encoding="UTF-8" standalone="no"?>
<!DOCTYPE svg PUBLIC "-//W3C//DTD SVG 1.1//EN" "http://www.w3.org/Graphics/SVG/1.1/DTD/svg11.dtd">
<svg width="100%" height="100%" viewBox="0 0 1000 1000" version="1.1" xmlns="http://www.w3.org/2000/svg" xmlns:xlink="http://www.w3.org/1999/xlink" xml:space="preserve" xmlns:serif="http://www.serif.com/" style="fill-rule:evenodd;clip-rule:evenodd;stroke-linejoin:round;stroke-miterlimit:2;">
    <g transform="matrix(-0.1,0,0,-0.1,1000,512)">
        <g>
            <path d="M4526.2,5008.1C3048.9,4856.7 1734.4,4065.4 900.9,2821.8C594.3,2362 306.9,1678 197.7,1139.5C115.3,733.3 100,574.3 100,124C100,-326.3 115.3,-481.5 197.7,-891.5C305,-1422.3 592.4,-2108.3 900.9,-2573.9C1822.5,-3951.6 3359.3,-4781.2 4995.6,-4781.2C6846.5,-4781.2 8551.9,-3721.6 9381.6,-2058.4C10213.2,-389.5 10035,1572.6 8914.1,3065.3C8138.1,4100 6992.3,4780.2 5685.5,4981.4C5445.9,5017.7 4771.4,5035 4526.2,5008.1ZM5409.5,4548.3C6009.2,4490.8 6616.6,4303 7132.1,4019.5C7523,3803 7783.6,3603.7 8130.4,3258.8C8827.9,2563.3 9243.7,1741.2 9397,754.5C9443,449.8 9443,-203.6 9395.1,-508.2C9280.1,-1259.3 8996.6,-1937.6 8552,-2537.4C8356.6,-2798 7917.8,-3236.8 7657.2,-3432.2C7057.5,-3876.7 6379.2,-4160.3 5628,-4275.3C5323.3,-4323.2 4669.9,-4323.2 4365.3,-4277.2C3378.5,-4123.9 2556.5,-3708.1 1860.9,-3010.6C1516,-2663.8 1316.7,-2403.2 1100.2,-2012.3C372.1,-692.1 372.1,940.4 1100.2,2260.6C1316.7,2651.5 1516,2914 1860.9,3258.9C2205.8,3603.8 2468.3,3803.1 2859.2,4019.6C3495.4,4370.3 4217.7,4560 4959.2,4567.6C5091.4,4567.4 5294.5,4559.8 5409.5,4548.3Z" style="fill-rule:nonzero;"/>
            <path d="M4535.8,2137.8C4535.8,2074.6 4648.8,1704.8 4723.6,1518.9C4765.8,1415.4 4800.2,1331.1 4798.3,1331.1C4796.4,1331.1 4656.5,1285.1 4487.9,1227.6C3989.7,1059 3550.9,848.2 3160,589.5C3060.4,522.4 2974.1,468.8 2966.5,468.8C2958.9,468.8 2922.4,499.5 2886,537.8C2728.9,700.7 2382.1,917.2 2023.8,1076.2C1816.9,1166.2 1470.1,1298.5 1470.1,1285C1470.1,1281.2 1508.4,1183.4 1556.3,1070.4C1721,677.8 1882,419.1 2092.7,206.4L2230.7,68.4L2117.6,-52.3C1910.7,-272.7 1659.7,-680.8 1519.8,-1023.8L1471.9,-1144.5L1523.6,-1131.1C1642.4,-1102.4 2033.3,-937.6 2272.8,-813C2543,-673.1 2700.1,-569.7 2861,-424L2960.6,-335.8L3202,-496.8C3487.5,-688.4 3876.5,-885.8 4219.5,-1016L4470.5,-1109.9L4397.7,-1278.5C4323,-1452.9 4209.9,-1809.3 4209.9,-1870.6C4209.9,-1891.7 4217.6,-1907 4227.1,-1907C4236.6,-1907 4349.7,-1859.1 4480,-1801.6C4750.2,-1680.9 5049.1,-1518 5223.5,-1395.4L5344.2,-1311.1L5616.3,-1334.1C5767.7,-1345.6 5980.4,-1351.3 6097.2,-1343.7C6292.6,-1332.2 6631.8,-1284.3 6666.3,-1263.2C6674,-1257.5 6633.7,-1186.6 6576.2,-1104.2C6154.7,-502.5 6091.4,286.9 6411.4,957.5C6461.2,1062.9 6545.5,1206.6 6599.2,1277.5L6696.9,1404L6530.2,1436.6C6440.2,1453.8 6231.3,1473 6068.4,1478.8L5771.4,1490.3L5646.8,1580.4C5418.8,1747.1 5054.7,1946.4 4704.1,2097.7C4558.8,2160.8 4535.8,2166.6 4535.8,2137.8Z" style="fill-rule:nonzero;"/>
            <path d="M6856.2,1243C6685.7,1047.6 6586,861.7 6496,566.6C6450,417.1 6444.3,373.1 6444.3,76.1C6444.3,-311 6473.1,-447 6622.5,-747.8C6722.1,-947.1 6892.7,-1178.9 6940.6,-1178.9C7015.3,-1178.9 7348.7,-1029.4 7572.9,-895.3C8059.6,-606 8559.7,-71.4 8513.7,110.7C8494.5,191.2 8320.2,436.4 8182.2,576.3C7906.3,859.9 7553.7,1095.6 7180.1,1248.8C7069,1292.9 6969.3,1331.2 6955.9,1331.2C6944.3,1331.2 6898.3,1290.9 6856.2,1243ZM7471.2,432.5C7603.4,285 7473.1,41.6 7279.6,74.2C7195.3,87.6 7107.2,170 7091.8,250.5C7076.5,329.1 7128.2,440.2 7197.2,480.4C7279.6,526.4 7408,503.4 7471.2,432.5Z" style="fill-rule:nonzero;"/>
        </g>
    </g>
</svg>
